<svg width="16" height="16" viewBox="0 0 16 16" fill="none" xmlns="http://www.w3.org/2000/svg">
<path d="M7.99994 0.583496C8.28541 0.583496 8.54612 0.74555 8.67247 1.00153L10.5581 4.82168L14.7751 5.43805C15.0575 5.47933 15.292 5.67733 15.38 5.94884C15.4681 6.22034 15.3944 6.51828 15.1899 6.71743L12.1392 9.68886L12.8591 13.8867C12.9074 14.1681 12.7917 14.4525 12.5607 14.6203C12.3298 14.7881 12.0235 14.8102 11.7709 14.6773L7.99994 12.6942L4.22903 14.6773C3.97634 14.8102 3.67012 14.7881 3.43914 14.6203C3.20816 14.4525 3.09247 14.1681 3.14073 13.8867L3.86072 9.68885L0.809974 6.71743C0.605511 6.51828 0.531806 6.22034 0.619839 5.94884C0.707872 5.67733 0.942383 5.47933 1.2248 5.43805L5.44174 4.82168L7.32741 1.00153C7.45376 0.74555 7.71448 0.583496 7.99994 0.583496Z" fill="#FCF2E7"/>
<path fill-rule="evenodd" clip-rule="evenodd" d="M8.00012 0.583496C7.71468 0.58352 7.454 0.745569 7.32765 1.00153L5.44199 4.82168L1.22505 5.43805C0.942627 5.47933 0.708117 5.67733 0.620083 5.94884C0.53205 6.22034 0.605755 6.51828 0.810218 6.71743L3.86096 9.68885L3.14098 13.8867C3.09272 14.1681 3.2084 14.4525 3.43938 14.6203C3.67037 14.7881 3.97659 14.8102 4.22927 14.6773L8.00012 12.6943V0.583496Z" fill="#FFAD4F"/>
</svg>
