<svg width="48" height="42" viewBox="0 0 48 42" fill="none" xmlns="http://www.w3.org/2000/svg">
<path d="M47.0287 18.1337C46.8862 18.0876 45.5939 17.6807 44.118 17.6807C43.1941 17.6807 42.3837 17.843 41.7014 18.1619C41.6879 17.9261 41.671 17.691 41.6479 17.4562C42.8059 17.1285 44.3839 16.4689 45.2808 15.1883C46.7291 13.1203 46.0483 9.9357 45.966 9.57938C45.8041 8.87845 45.1383 8.41263 44.4249 8.50052C44.0796 8.54263 41.1433 8.95279 39.6118 10.7747C39.5071 10.5802 39.3994 10.3872 39.287 10.1968C39.2796 10.184 39.2716 10.1715 39.2639 10.1587C40.1747 9.37247 41.3249 8.1083 41.5963 6.56948C42.0347 4.0829 40.0721 1.48462 39.8469 1.19678C39.4038 0.629884 38.6044 0.488892 37.9942 0.869753C37.6991 1.05432 35.2088 2.66822 34.5925 4.96877C34.0414 4.55714 33.4668 4.17555 32.8695 3.82985C32.1971 3.44093 31.3369 3.67054 30.948 4.34254C30.6316 4.88893 30.7242 5.55947 31.1311 6.00039C29.8592 6.4966 28.8942 7.22903 28.7393 7.34988C28.1724 7.793 28.0314 8.59244 28.4123 9.20255C28.5914 9.48929 30.1163 11.8426 32.3081 12.545C32.4952 13.5077 33.0215 15.4604 34.3372 16.6784C34.1003 17.6302 33.7517 19.6224 34.4295 21.2824C33.8125 22.0449 32.6549 23.7027 32.5677 25.4939C31.5929 25.9696 29.5542 27.1579 28.8668 29.0461C28.3471 30.474 28.6767 32.0923 29.0594 33.2257C27.4788 33.797 25.7756 34.1094 24.0002 34.1094C22.2252 34.1094 20.5215 33.797 18.941 33.2257C19.3237 32.0923 19.6536 30.474 19.1336 29.0461C18.4466 27.1579 16.4079 25.9696 15.4327 25.4939C15.3455 23.7031 14.1879 22.0449 13.5708 21.2824C14.2487 19.6224 13.9004 17.6302 13.6631 16.6784C14.9793 15.4604 15.5052 13.5077 15.6927 12.545C17.8841 11.8422 19.409 9.48929 19.5881 9.20255C19.9689 8.59244 19.8279 7.793 19.261 7.34988C19.1065 7.22903 18.1412 6.4966 16.8697 6.00039C17.2765 5.55947 17.3692 4.88893 17.0528 4.34254C16.6639 3.67054 15.804 3.44056 15.1316 3.82948C14.534 4.17518 13.9594 4.55714 13.4079 4.9684C12.7919 2.66822 10.3013 1.05396 10.0061 0.869753C9.39601 0.488892 8.59657 0.629517 8.15345 1.19641C7.92823 1.48426 5.9657 4.08253 6.40406 6.56911C6.67542 8.10794 7.82569 9.3721 8.73646 10.1584C8.72877 10.1712 8.72072 10.1836 8.71339 10.1961C8.60096 10.3869 8.4933 10.5799 8.38856 10.7743C6.85706 8.95242 3.92077 8.54227 3.57544 8.49979C2.86059 8.41226 2.19628 8.87808 2.03442 9.57901C1.95202 9.93534 1.2716 13.1199 2.7196 15.1879C3.61645 16.4686 5.19446 17.1285 6.35242 17.4559C6.32935 17.6906 6.31251 17.9257 6.29859 18.1616C5.6167 17.843 4.80627 17.6804 3.88232 17.6804C2.40649 17.6804 1.11412 18.0872 0.971668 18.1334C0.287217 18.356 -0.118546 19.0592 0.0308689 19.7626C0.107041 20.1204 0.836169 23.294 3.02246 24.5567C3.7655 24.9856 4.68652 25.2031 5.75916 25.2031C5.75952 25.2031 5.75952 25.2031 5.75952 25.2031C6.30555 25.2031 6.82593 25.1474 7.27271 25.0749C7.35145 25.2979 7.43385 25.5191 7.52101 25.7378C7.52027 25.7378 7.51954 25.7378 7.51881 25.7378C5.1388 25.7378 2.92761 27.7369 2.68334 27.9647C2.1571 28.4554 2.08642 29.264 2.51928 29.839C2.73937 30.1308 4.74146 32.6991 7.2566 32.9192C7.37562 32.9294 7.4983 32.9349 7.62062 32.9349C7.62098 32.9349 7.62062 32.9349 7.62098 32.9349C9.05067 32.9349 10.4185 32.2139 11.3366 31.5887C11.5021 31.7576 11.6709 31.9235 11.843 32.0861C9.67983 33.0891 8.51967 35.828 8.38929 36.1514C8.11976 36.8186 8.39772 37.5814 9.03273 37.9194C9.23671 38.0278 11.0802 38.9789 12.9977 38.9789C12.9977 38.9789 12.9977 38.9789 12.9981 38.9789C13.5873 38.9789 14.1359 38.8881 14.6281 38.709C16.097 38.1743 17.1429 36.8204 17.7588 35.7866C18.2642 35.9774 18.7802 36.1455 19.3061 36.2898C18.4876 37.1222 17.738 38.1813 17.0802 39.452C16.7232 40.142 16.9931 40.9905 17.6827 41.3476C18.3726 41.7043 19.2211 41.4347 19.5778 40.7448C20.8354 38.3153 22.4471 36.9219 24.0002 36.9219C25.5529 36.9219 27.165 38.3153 28.4226 40.7451C28.6727 41.2282 29.1638 41.505 29.6724 41.505C29.8903 41.505 30.1112 41.4545 30.3177 41.3476C31.0077 40.9905 31.2772 40.142 30.9201 39.452C30.2624 38.1813 29.5128 37.1222 28.6943 36.2898C29.2202 36.1455 29.7362 35.9774 30.2412 35.7866C30.8575 36.8204 31.903 38.1743 33.3727 38.709C33.8645 38.8881 34.4131 38.9789 35.0027 38.9789C36.9201 38.9789 38.7633 38.0278 38.9673 37.9191C39.6026 37.5814 39.8802 36.8186 39.6107 36.1514C39.4803 35.828 38.3202 33.0891 36.1573 32.0857C36.3294 31.9235 36.4979 31.7576 36.6634 31.5884C37.5815 32.2139 38.9497 32.9349 40.3794 32.9349C40.5017 32.9349 40.624 32.9294 40.7438 32.9192C43.2589 32.6991 45.2606 30.1308 45.4807 29.8386C45.9136 29.264 45.8429 28.4554 45.3167 27.9647C45.0724 27.7365 42.8612 25.7378 40.4812 25.7378C40.4805 25.7378 40.4797 25.7378 40.479 25.7378C40.5662 25.5188 40.6486 25.2979 40.7273 25.0749C41.1741 25.1471 41.6948 25.2027 42.2408 25.2027C43.3135 25.2027 44.2345 24.9856 44.9775 24.5564C47.1638 23.294 47.893 20.1204 47.9691 19.7626C48.1189 19.0595 47.7131 18.3564 47.0287 18.1337ZM35.9999 23.9287C36.4785 24.4802 36.8916 25.1266 36.9407 25.6843C36.9894 26.2424 36.6953 26.9503 36.3199 27.5761C35.8512 27.036 35.4282 26.3885 35.3784 25.8213C35.3297 25.2628 35.6245 24.5542 35.9999 23.9287ZM38.7102 21.5838C38.0572 21.2927 37.4002 20.8847 37.1153 20.3914C36.8352 19.9062 36.803 19.1401 36.8784 18.4146C37.5314 18.7058 38.1883 19.1141 38.4733 19.6077C38.7534 20.0926 38.786 20.8584 38.7102 21.5838ZM35.3451 13.0467C35.3883 13.0459 35.4319 13.0452 35.4762 13.0452C36.2741 13.0452 36.9194 13.1895 37.2937 13.4517C37.7525 13.7729 38.1052 14.4522 38.3436 15.141C38.3 15.1418 38.2565 15.1421 38.2121 15.1421C37.4142 15.1421 36.7685 14.9979 36.3946 14.736C35.9361 14.4148 35.5835 13.7352 35.3451 13.0467ZM41.6926 12.6757C42.0142 12.2168 42.6946 11.8638 43.3838 11.6254C43.3959 12.3406 43.304 13.1086 42.9773 13.5751C42.6558 14.0336 41.9757 14.3866 41.2861 14.6251C41.274 13.9102 41.366 13.1423 41.6926 12.6757ZM37.2823 5.80886C37.3797 5.25734 37.8474 4.64943 38.3714 4.14259C38.6846 4.78529 38.9255 5.52028 38.8266 6.08132C38.7292 6.63247 38.2619 7.24002 37.7375 7.74759C37.4248 7.10452 37.1838 6.36953 37.2823 5.80886ZM31.6877 8.82901C32.2202 8.56863 32.8307 8.34927 33.3595 8.34927C33.4536 8.34927 33.5422 8.3566 33.6239 8.37088C34.1754 8.46829 34.7829 8.93558 35.2898 9.45926C34.7602 9.71854 34.1505 9.93644 33.6158 9.93644C33.5217 9.93644 33.4327 9.92911 33.351 9.91483C32.8006 9.81778 32.1942 9.35196 31.6877 8.82901ZM31.5097 30.0082C31.7013 29.4816 32.2678 28.9641 32.8724 28.5558C33.0735 29.2578 33.1745 30.0181 32.983 30.5447C32.7915 31.0713 32.2249 31.5887 31.62 31.9974C31.4193 31.2954 31.3178 30.5351 31.5097 30.0082ZM11.6057 14.736C11.2318 14.9979 10.5866 15.1421 9.78859 15.1421C9.74465 15.1421 9.70143 15.1418 9.65859 15.141C9.89186 14.4661 10.2409 13.7776 10.7067 13.4513C11.081 13.1895 11.7262 13.0452 12.5242 13.0452C12.5685 13.0452 12.6121 13.0459 12.6553 13.0467C12.4169 13.7359 12.0642 14.4152 11.6057 14.736ZM10.885 20.3914C10.6049 20.8767 9.95741 21.2879 9.29054 21.5853C9.21474 20.8591 9.24696 20.0926 9.52711 19.607C9.80727 19.1218 10.4555 18.7105 11.1216 18.4132C11.1978 19.1394 11.1652 19.9062 10.885 20.3914ZM11.0601 25.6847C11.1088 25.1266 11.5215 24.4806 11.9994 23.9298C12.3675 24.5428 12.6714 25.254 12.622 25.8216C12.5733 26.3797 12.1598 27.0261 11.6812 27.5776C11.3058 26.9514 11.011 26.2428 11.0601 25.6847ZM16.4906 30.0085C16.6825 30.5351 16.5811 31.2954 16.3804 31.9974C15.7754 31.5887 15.2089 31.0713 15.0174 30.5447C14.8258 30.0181 14.9273 29.2574 15.1276 28.5558C15.7326 28.9645 16.2991 29.4819 16.4906 30.0085ZM14.6493 9.91483C14.5677 9.92911 14.479 9.93644 14.3849 9.93644H14.3846C13.8561 9.93644 13.246 9.71744 12.7146 9.45743C13.2108 8.9451 13.8173 8.46939 14.3769 8.37088C14.4582 8.3566 14.5472 8.34927 14.6413 8.34927C15.1693 8.34927 15.7795 8.56827 16.3112 8.82828C15.815 9.34097 15.2085 9.81632 14.6493 9.91483ZM9.62709 4.14296C10.1413 4.63954 10.6192 5.24782 10.718 5.80886C10.8151 6.36074 10.5836 7.0917 10.2639 7.74832C9.73915 7.24075 9.27113 6.63283 9.17372 6.08132C9.07631 5.52944 9.30812 4.79848 9.62709 4.14296ZM5.02344 13.5751C4.7019 13.1159 4.60303 12.3549 4.61511 11.6254C5.30542 11.8634 5.98621 12.2165 6.30774 12.6757C6.62891 13.1346 6.72816 13.8945 6.71607 14.624C6.04004 14.3907 5.3501 14.0413 5.02344 13.5751ZM5.75989 22.3909H5.75952C5.19446 22.3909 4.73413 22.2976 4.42871 22.1214C3.94421 21.8413 3.53332 21.1949 3.23596 20.5295C3.44323 20.5075 3.6615 20.4932 3.88232 20.4932C4.44702 20.4932 4.90698 20.5866 5.21277 20.7628C5.69727 21.0429 6.10816 21.6893 6.40552 22.3547C6.19825 22.377 5.98035 22.3909 5.75989 22.3909ZM7.62098 30.1228C7.5796 30.1228 7.53968 30.1213 7.5016 30.1177C6.94385 30.069 6.29859 29.657 5.74817 29.1794C6.3169 28.8388 6.97279 28.5506 7.51881 28.5506C7.55982 28.5506 7.60011 28.5521 7.63819 28.5554C8.19557 28.6045 8.84083 29.0165 9.39125 29.4936C8.83461 29.8295 8.18129 30.1228 7.62098 30.1228ZM13.666 36.0664C13.4833 36.1331 13.2585 36.1668 12.9981 36.1668H12.9977C12.5685 36.1668 12.1041 36.0748 11.6808 35.9529C12.0807 35.3618 12.5956 34.7876 13.1295 34.5931C13.3126 34.5265 13.5375 34.4928 13.7982 34.4928C14.2278 34.4928 14.6925 34.5851 15.1166 34.707C14.7079 35.3106 14.1916 35.8753 13.666 36.0664ZM35.003 36.1668C34.7423 36.1668 34.5174 36.1331 34.3347 36.0668C33.8092 35.8753 33.2924 35.3106 32.8841 34.707C33.3078 34.5855 33.7729 34.4928 34.2025 34.4928C34.4632 34.4928 34.6881 34.5265 34.8712 34.5931C35.3967 34.7847 35.9131 35.3494 36.3214 35.9525C35.8977 36.0745 35.4322 36.1668 35.003 36.1668ZM42.2518 29.1798C41.701 29.6573 41.0561 30.069 40.4991 30.1177C40.461 30.1213 40.4208 30.1228 40.3797 30.1228C39.8198 30.1228 39.1669 29.8295 38.6106 29.4944C39.15 29.0267 39.796 28.6052 40.3622 28.5558C40.4006 28.5521 40.4405 28.5506 40.4816 28.5506C41.0422 28.5506 41.6955 28.8443 42.2518 29.1798ZM43.572 22.1211C43.2662 22.2976 42.8059 22.3909 42.2412 22.3909C42.0204 22.3909 41.8025 22.377 41.5952 22.3547C41.8926 21.6889 42.3031 21.0429 42.7876 20.7631C43.0934 20.5866 43.5533 20.4932 44.118 20.4932C44.3389 20.4932 44.5571 20.5072 44.7644 20.5295C44.467 21.1953 44.0565 21.8413 43.572 22.1211Z" fill="white"/>
</svg>
