<svg width="24" height="24" viewBox="0 0 24 24" fill="none" xmlns="http://www.w3.org/2000/svg">
<path fill-rule="evenodd" clip-rule="evenodd" d="M3.50001 2C2.94772 2 2.50001 2.44772 2.50001 3C2.50001 3.55228 2.94772 4 3.50001 4H15.378L14.1088 15H5.5H3.12202L3.22418 14.1146C3.28749 13.566 2.89404 13.0699 2.3454 13.0066C1.79675 12.9433 1.30067 13.3367 1.23737 13.8854L1.0066 15.8854C0.973908 16.1687 1.06373 16.4525 1.25347 16.6653C1.44321 16.8782 1.71483 17 2.00001 17H2.33682C2.12085 17.4546 2 17.9632 2 18.5C2 20.433 3.567 22 5.5 22C7.433 22 9 20.433 9 18.5C9 17.9632 8.87915 17.4546 8.66318 17H15H15.3368C15.1208 17.4546 15 17.9632 15 18.5C15 20.433 16.567 22 18.5 22C20.433 22 22 20.433 22 18.5C22 17.9632 21.8792 17.4546 21.6632 17H22C22.5062 17 22.9326 16.6217 22.9929 16.1191L23.5929 11.1191C23.6265 10.8392 23.5403 10.5581 23.3557 10.3451L20.7557 7.34507C20.5658 7.12591 20.29 7 20 7H17.0451L17.4934 3.11462C17.5261 2.83133 17.4363 2.54755 17.2465 2.33465C17.0568 2.12176 16.7852 2 16.5 2H3.50001ZM18.5 15H21.1128L21.5544 11.3204L19.5434 9H16.8383L16.1258 15H18.5ZM18.5 17C17.6716 17 17 17.6716 17 18.5C17 19.3284 17.6716 20 18.5 20C19.3284 20 20 19.3284 20 18.5C20 17.6716 19.3284 17 18.5 17ZM4 18.5C4 17.6716 4.67157 17 5.5 17C6.32843 17 7 17.6716 7 18.5C7 19.3284 6.32843 20 5.5 20C4.67157 20 4 19.3284 4 18.5ZM0 7C0 6.44772 0.447715 6 1 6H6C6.55228 6 7 6.44772 7 7C7 7.55228 6.55228 8 6 8H1C0.447715 8 0 7.55228 0 7ZM2 9C1.44772 9 1 9.44772 1 10C1 10.5523 1.44772 11 2 11H5C5.55228 11 6 10.5523 6 10C6 9.44772 5.55228 9 5 9H2Z" fill="#38433F" fill-opacity="0.8"/>
</svg>
