<svg fill="currentColor" width="24" height="24" viewBox="0 0 24 24" xmlns="http://www.w3.org/2000/svg">
<path fill-rule="evenodd" clip-rule="evenodd" d="M13 4C8.58172 4 5 7.58172 5 12V14C5 14.5523 4.55228 15 4 15C3.44772 15 3 14.5523 3 14V12C3 6.47715 7.47715 2 13 2C18.5228 2 23 6.47715 23 12C23 17.5228 18.5228 22 13 22C10.6195 22 8.43086 21.167 6.71362 19.7774C6.29539 19.4389 5.90505 19.0675 5.54655 18.6669C5.17822 18.2554 5.21324 17.6232 5.62477 17.2549C6.03629 16.8865 6.66849 16.9216 7.03682 17.3331C7.32402 17.654 7.63673 17.9516 7.97171 18.2226C9.34592 19.3346 11.0939 20 13 20C17.4183 20 21 16.4183 21 12C21 7.58172 17.4183 4 13 4Z" />
<path fill-rule="evenodd" clip-rule="evenodd" d="M13 6C13.5523 6 14 6.44772 14 7V11.3826L17.4471 13.1055C17.9411 13.3524 18.1414 13.9531 17.8945 14.4471C17.6476 14.9411 17.0469 15.1414 16.5529 14.8945L12.5529 12.8953C12.2141 12.7259 12 12.3796 12 12.0008V7C12 6.44772 12.4477 6 13 6Z"/>
<path fill-rule="evenodd" clip-rule="evenodd" d="M1.29289 11.2929C1.68342 10.9024 2.31658 10.9024 2.70711 11.2929L4 12.5858L5.29289 11.2929C5.68342 10.9024 6.31658 10.9024 6.70711 11.2929C7.09763 11.6834 7.09763 12.3166 6.70711 12.7071L4.70711 14.7071C4.31658 15.0976 3.68342 15.0976 3.29289 14.7071L1.29289 12.7071C0.902369 12.3166 0.902369 11.6834 1.29289 11.2929Z"/>
</svg>
