<svg width="40" height="52" viewBox="0 0 40 52" fill="none" xmlns="http://www.w3.org/2000/svg">
<path d="M39.6771 18.173L37.1686 13.3301L36.3513 7.93777C36.276 7.44066 35.9641 7.0114 35.5146 6.78646L30.6388 4.343L26.808 0.460615C26.4549 0.102765 25.9507 -0.0610835 25.4544 0.0206426L20.0735 0.909712L14.6927 0.0206426C14.1968 -0.0610835 13.6921 0.102765 13.3391 0.460615L9.50863 4.34261L4.63243 6.78646C4.18333 7.0114 3.87111 7.44066 3.79613 7.93777L2.97886 13.3297L0.470345 18.1726C0.239052 18.6189 0.239052 19.1497 0.470345 19.596L2.97886 24.4389L3.79613 29.8313C3.87111 30.328 4.18333 30.7572 4.63243 30.9826L9.50863 33.4264L10.2402 34.1679V50.4528C10.2402 50.9892 10.5179 51.4871 10.9741 51.7688C11.2225 51.9227 11.5046 52.0001 11.7874 52.0001C12.0239 52.0001 12.2611 51.9457 12.4793 51.8366L20.0735 48.0395L27.6677 51.8366C28.1474 52.0762 28.7171 52.0508 29.1729 51.7688C29.6291 51.4871 29.9069 50.9888 29.9069 50.4528V34.1683L30.6388 33.4264L35.5146 30.9826C35.9641 30.7576 36.276 30.3284 36.3513 29.8313L37.1686 24.4393L39.6771 19.596C39.908 19.1497 39.908 18.6189 39.6771 18.173ZM26.8124 47.9495L20.7658 44.926C20.3298 44.7082 19.8172 44.7082 19.3816 44.926L13.3347 47.9495V37.304L13.3391 37.3084C13.6921 37.6663 14.1968 37.8305 14.6927 37.7484L20.0735 36.8593L25.4544 37.7484C25.5385 37.7623 25.623 37.769 25.7067 37.769C26.1173 37.769 26.5148 37.6056 26.808 37.3088L26.8124 37.304V47.9495ZM34.3034 23.2428C34.2253 23.3931 34.1725 23.555 34.1471 23.7224L33.412 28.5752L29.0237 30.7747C28.8726 30.8504 28.7345 30.9504 28.6159 31.071L25.1683 34.5646L20.3258 33.7644C20.1592 33.737 19.9886 33.7367 19.8212 33.7644L14.9787 34.5646L12.8832 32.4409C12.882 32.4397 12.8812 32.439 12.88 32.4378L11.5316 31.071C11.4125 30.9504 11.2749 30.8504 11.1233 30.7747L6.7351 28.5752L5.99956 23.7228C5.97417 23.5554 5.9218 23.3931 5.84365 23.2428L3.58626 18.8847L5.84365 14.5262C5.9218 14.3759 5.97417 14.214 5.99956 14.0466L6.7351 9.19381L11.1233 6.99474C11.2749 6.91897 11.4125 6.81859 11.5316 6.69799L14.9787 3.20439L19.8212 4.00459C19.9882 4.03197 20.1588 4.03197 20.3258 4.00459L25.1679 3.20439L28.6155 6.69799C28.7345 6.81859 28.8726 6.91897 29.0237 6.99474L33.4116 9.19381L34.1471 14.0466C34.1725 14.214 34.2253 14.3759 34.303 14.5262L36.5604 18.8847L34.3034 23.2428Z" fill="white"/>
</svg>
