<svg width="22" height="18" viewBox="0 0 22 18" fill="none" xmlns="http://www.w3.org/2000/svg">
<path d="M17.5 1H18.5C18.5 0.606208 18.2689 0.249079 17.9097 0.0877597C17.5504 -0.0735594 17.13 -0.00903034 16.8356 0.252591L17.5 1ZM5.80002 5.00001L5.80001 6.00001H5.80002V5.00001ZM17.5 15L16.8356 15.7474C17.13 16.009 17.5504 16.0736 17.9097 15.9122C18.2689 15.7509 18.5 15.3938 18.5 15H17.5ZM5.80002 11L5.80001 12H5.80002V11ZM4 11L4 10H4V11ZM4 5L4 4H4V5ZM7 5C7 4.44772 6.55228 4 6 4C5.44772 4 5 4.44772 5 5H7ZM7.4 17.3C7.84183 17.6314 8.46863 17.5418 8.8 17.1C9.13137 16.6582 9.04183 16.0314 8.6 15.7L7.4 17.3ZM22 6C22 5.44772 21.5523 5 21 5C20.4477 5 20 5.44772 20 6H22ZM20 10C20 10.5523 20.4477 11 21 11C21.5523 11 22 10.5523 22 10H20ZM17.5 1C16.8356 0.252591 16.8359 0.252349 16.8362 0.252121C16.8362 0.252066 16.8365 0.251853 16.8366 0.251742C16.8368 0.251519 16.837 0.251356 16.8371 0.251253C16.8374 0.251046 16.8373 0.251079 16.837 0.251346C16.8364 0.25188 16.8347 0.253352 16.832 0.255734C16.8265 0.260497 16.8167 0.268893 16.8028 0.280681C16.7748 0.30426 16.7301 0.341386 16.669 0.390139C16.5467 0.487677 16.3592 0.631544 16.1099 0.806445C15.6111 1.15652 14.8675 1.62917 13.9072 2.10337C11.9857 3.05226 9.21238 4.00001 5.80002 4.00001V6.00001C9.58764 6.00001 12.6643 4.94775 14.7928 3.89663C15.8575 3.37084 16.6889 2.84348 17.2588 2.44356C17.5439 2.24346 17.7642 2.07482 17.9162 1.95361C17.9922 1.89299 18.0511 1.84418 18.0926 1.80916C18.1134 1.79165 18.1298 1.77759 18.1417 1.76722C18.1477 1.76203 18.1526 1.75776 18.1564 1.75445C18.1583 1.7528 18.1599 1.75138 18.1612 1.7502C18.1619 1.74962 18.1625 1.74909 18.163 1.74862C18.1633 1.74839 18.1636 1.74809 18.1637 1.74797C18.1641 1.74768 18.1644 1.74741 17.5 1ZM18.5 15V1H16.5V15H18.5ZM5.80002 12C9.21238 12 11.9857 12.9478 13.9072 13.8966C14.8675 14.3708 15.6111 14.8435 16.11 15.1936C16.3592 15.3685 16.5467 15.5123 16.669 15.6099C16.7301 15.6586 16.7748 15.6957 16.8028 15.7193C16.8167 15.7311 16.8265 15.7395 16.832 15.7443C16.8348 15.7467 16.8364 15.7481 16.837 15.7487C16.8373 15.7489 16.8374 15.749 16.8371 15.7488C16.837 15.7486 16.8368 15.7485 16.8366 15.7483C16.8365 15.7481 16.8362 15.7479 16.8362 15.7479C16.8359 15.7477 16.8356 15.7474 17.5 15C18.1644 14.2526 18.1641 14.2523 18.1637 14.252C18.1636 14.2519 18.1633 14.2516 18.163 14.2514C18.1625 14.2509 18.1619 14.2504 18.1612 14.2498C18.1599 14.2486 18.1583 14.2472 18.1564 14.2455C18.1526 14.2422 18.1477 14.238 18.1417 14.2328C18.1298 14.2224 18.1134 14.2083 18.0926 14.1908C18.0511 14.1558 17.9922 14.107 17.9162 14.0464C17.7642 13.9252 17.5439 13.7565 17.2588 13.5564C16.6889 13.1565 15.8575 12.6292 14.7928 12.1034C12.6643 11.0523 9.58764 10 5.80002 10V12ZM4 12L5.80001 12L5.80002 10L4 10L4 12ZM4 10C2.89544 10 2 9.10458 2 8H0C0 10.2091 1.79085 12 4 12V10ZM2 8C2 6.89543 2.89543 6 4 6V4C1.79086 4 0 5.79086 0 8H2ZM5.80002 4.00001L4 4L4 6L5.80001 6.00001L5.80002 4.00001ZM5 5V12H7V5H5ZM5 12C5 13.7343 5.58086 15.0491 6.16795 15.9297C6.46021 16.3681 6.75425 16.6997 6.98039 16.9259C7.09371 17.0392 7.1908 17.1268 7.26327 17.1889C7.29954 17.22 7.32974 17.2448 7.35284 17.2633C7.3644 17.2725 7.37419 17.2802 7.38209 17.2863C7.38604 17.2894 7.38952 17.2921 7.39251 17.2943C7.394 17.2955 7.39538 17.2965 7.39663 17.2975C7.39725 17.2979 7.39784 17.2984 7.39841 17.2988C7.39869 17.299 7.39909 17.2993 7.39923 17.2994C7.39962 17.2997 7.4 17.3 8 16.5C8.6 15.7 8.60037 15.7003 8.60073 15.7005C8.60084 15.7006 8.60119 15.7009 8.60141 15.7011C8.60185 15.7014 8.60226 15.7017 8.60265 15.702C8.60341 15.7026 8.60406 15.7031 8.60459 15.7035C8.60566 15.7043 8.60627 15.7048 8.60644 15.7049C8.60677 15.7051 8.60533 15.704 8.60223 15.7016C8.59604 15.6966 8.58327 15.6862 8.56485 15.6704C8.52795 15.6388 8.46879 15.5858 8.39461 15.5116C8.24575 15.3628 8.03979 15.1319 7.83205 14.8203C7.41914 14.2009 7 13.2657 7 12H5ZM20 6V10H22V6H20Z" fill="#FF7664"/>
</svg>
