<svg width="80" height="80" viewBox="0 0 80 80" fill="none" xmlns="http://www.w3.org/2000/svg">
<path fill-rule="evenodd" clip-rule="evenodd" d="M4.59488 2.39047C3.81383 1.60943 2.5475 1.60943 1.76645 2.39047C0.985402 3.17152 0.985402 4.43785 1.76645 5.2189L17.0996 20.552C16.6678 21.1482 16.257 21.7612 15.8681 22.39C12.9062 27.1795 11.336 32.699 11.3334 38.3304C11.3222 42.7464 12.2882 47.1063 14.1576 51.0989C14.168 51.1212 14.1714 51.1393 14.1722 51.1501C14.1725 51.1551 14.1723 51.158 14.1721 51.1593L8.10269 69.3676C7.86313 70.0863 8.05018 70.8786 8.58584 71.4143C9.1215 71.95 9.91384 72.137 10.6325 71.8975L28.8409 65.828C28.8421 65.8279 28.8451 65.8276 28.8501 65.828C28.8608 65.8287 28.8789 65.8321 28.9012 65.8426L29.7493 64.0313L28.9012 65.8426C32.8939 67.712 37.2538 68.6779 41.6697 68.6668C47.3011 68.6642 52.8206 67.094 57.6101 64.132C58.239 63.7432 58.8519 63.3323 59.4481 62.9006L75.0998 78.5522C75.8808 79.3333 77.1472 79.3333 77.9282 78.5522C78.7093 77.7712 78.7093 76.5049 77.9282 75.7238L4.59488 2.39047ZM56.5781 60.0306L19.9695 23.422C19.7281 23.773 19.4949 24.1304 19.2701 24.4939C16.6984 28.6524 15.3353 33.4447 15.3334 38.3342L15.3334 38.3386C15.3234 42.1651 16.1603 45.9431 17.7802 49.4028C18.2101 50.3211 18.3078 51.4013 17.9673 52.423L13.1623 66.8378L27.5772 62.0329L28.2096 63.9302L27.5772 62.0329C28.5988 61.6923 29.6791 61.79 30.5973 62.22C34.057 63.8398 37.835 64.6767 41.6615 64.6668L41.6659 64.6668C46.5554 64.6649 51.3478 63.3017 55.5063 60.73C55.8697 60.5052 56.2271 60.272 56.5781 60.0306ZM41.6697 68.6668L41.6719 68.6667L41.6667 66.6668L41.6675 68.6668H41.6697ZM11.3334 38.3304L11.3334 38.3282L13.3334 38.3334L11.3334 38.3326L11.3334 38.3304ZM29.9018 14.7853C33.5476 12.9437 37.577 11.9894 41.6615 12.0001L41.6667 12.0001H43.2772C49.7135 12.3685 55.7902 15.0911 60.3496 19.6505C64.9091 24.2099 67.6317 30.2867 68 36.7229V38.3334L68.0001 38.3386C68.0107 42.4232 67.0564 46.4525 65.2149 50.0984L65.211 50.106C64.812 50.9045 64.3738 51.6798 63.8987 52.4294C63.3074 53.3624 63.5844 54.5981 64.5174 55.1893C65.4504 55.7806 66.6861 55.5036 67.2774 54.5706C67.8239 53.7082 68.328 52.8163 68.7872 51.8979C70.9111 47.6916 72.0119 43.0433 72 38.3312V36.6668C72 36.63 71.999 36.5933 71.997 36.5566C71.5866 29.1172 68.4465 22.0905 63.1781 16.8221C57.9096 11.5536 50.883 8.41356 43.4436 8.00313C43.4069 8.00111 43.3701 8.00009 43.3334 8.00009H41.6693C36.957 7.98823 32.3085 9.08907 28.1021 11.213C26.9922 11.7679 25.9212 12.3884 24.8942 13.07C23.9738 13.6808 23.7229 14.922 24.3336 15.8423C24.9444 16.7627 26.1856 17.0137 27.1059 16.4029C27.9986 15.8105 28.9295 15.2713 29.8942 14.7891L29.8942 14.7891L29.9018 14.7853Z" fill="#38433F" fill-opacity="0.2"/>
</svg>
