<svg width="81" height="80" viewBox="0 0 81 80" fill="none" xmlns="http://www.w3.org/2000/svg">
<path fill-rule="evenodd" clip-rule="evenodd" d="M5.09488 2.39047C4.31383 1.60943 3.0475 1.60943 2.26645 2.39047C1.4854 3.17152 1.4854 4.43785 2.26645 5.2189L11.833 14.7855V66.667C11.833 68.9655 12.7461 71.1699 14.3714 72.7953C15.9967 74.4206 18.2011 75.3337 20.4997 75.3337H60.4997C62.7982 75.3337 65.0026 74.4206 66.6279 72.7953C67.1757 72.2475 67.6425 71.634 68.0208 70.9733L75.5998 78.5522C76.3808 79.3333 77.6472 79.3333 78.4282 78.5522C79.2093 77.7712 79.2093 76.5049 78.4282 75.7238L44.7844 42.08C44.6937 41.9674 44.5911 41.8647 44.4785 41.7741L5.09488 2.39047ZM38.3806 41.333L15.833 18.7855V66.667C15.833 67.9047 16.3247 69.0917 17.1998 69.9668C18.075 70.842 19.262 71.3337 20.4997 71.3337H60.4997C61.7373 71.3337 62.9243 70.842 63.7995 69.9668C64.3672 69.3992 64.7735 68.7002 64.989 67.9414L55.1871 58.1395C54.8309 58.467 54.3556 58.667 53.8337 58.667H27.167C26.0624 58.667 25.167 57.7716 25.167 56.667C25.167 55.5624 26.0624 54.667 27.167 54.667H51.7145L42.3806 45.333H27.167C26.0624 45.333 25.167 44.4376 25.167 43.333C25.167 42.2284 26.0624 41.333 27.167 41.333H38.3806ZM18.4997 6.66699C18.4997 5.56242 19.3951 4.66699 20.4997 4.66699H47.1663H47.1667H47.167C47.7348 4.66699 48.2473 4.90361 48.6114 5.28361L68.5504 25.2226C68.9304 25.5866 69.167 26.0992 69.167 26.667C69.167 26.6843 69.1668 26.7015 69.1663 26.7187V53.3182C69.1663 54.4228 68.2709 55.3182 67.1663 55.3182C66.0618 55.3182 65.1663 54.4228 65.1663 53.3182V28.667H47.167C46.0624 28.667 45.167 27.7716 45.167 26.667V8.66699H20.4997C19.3951 8.66699 18.4997 7.77156 18.4997 6.66699ZM49.167 24.667V11.4961L62.3379 24.667H49.167Z" fill="#38433F" fill-opacity="0.2"/>
</svg>
