<svg width="80" height="80" viewBox="0 0 80 80" fill="none" xmlns="http://www.w3.org/2000/svg">
<path fill-rule="evenodd" clip-rule="evenodd" d="M4.74722 1.91879C3.96617 1.13775 2.69984 1.13775 1.91879 1.91879C1.13775 2.69984 1.13775 3.96617 1.91879 4.74722L28.5046 31.333H20.0003C11.5319 31.333 4.66699 38.198 4.66699 46.6663C4.66699 47.7709 5.56242 48.6663 6.66699 48.6663H45.8379L65.3016 68.13L64.9011 71.3337H60C58.8954 71.3337 58 72.2291 58 73.3337C58 74.4382 58.8954 75.3337 60 75.3337H66.6667C67.6753 75.3337 68.5261 74.5826 68.6512 73.5817L68.8848 71.7132L75.2521 78.0806C76.0332 78.8616 77.2995 78.8616 78.0806 78.0806C78.8616 77.2995 78.8616 76.0332 78.0806 75.2521L4.74722 1.91879ZM41.8379 44.6663L32.5046 35.333C32.503 35.333 32.5015 35.333 32.5 35.333H20.0003C14.4235 35.333 9.78752 39.361 8.8429 44.6663H41.8379ZM56.6667 4.66699C57.7712 4.66699 58.6667 5.56242 58.6667 6.66699V18.0003H73.3333C73.907 18.0003 74.453 18.2467 74.8327 18.6767C75.2123 19.1068 75.389 19.6792 75.3179 20.2484L70.8179 56.2481C70.6809 57.3441 69.6814 58.1216 68.5853 57.9846C67.4893 57.8475 66.7118 56.848 66.8488 55.7519L71.0678 22.0003H40C38.8954 22.0003 38 21.1049 38 20.0003C38 18.8958 38.8954 18.0003 40 18.0003H54.6667V6.66699C54.6667 5.56242 55.5621 4.66699 56.6667 4.66699ZM4.66699 60C4.66699 58.8954 5.56242 58 6.66699 58H50.0002C51.1047 58 52.0002 58.8954 52.0002 60C52.0002 61.1046 51.1047 62 50.0002 62H6.66699C5.56242 62 4.66699 61.1046 4.66699 60ZM6.66699 71.333C5.56242 71.333 4.66699 72.2284 4.66699 73.333C4.66699 74.4376 5.56242 75.333 6.66699 75.333H50.0002C51.1047 75.333 52.0002 74.4376 52.0002 73.333C52.0002 72.2284 51.1047 71.333 50.0002 71.333H6.66699Z" fill="#38433F" fill-opacity="0.2"/>
</svg>
