<svg width="80" height="80" viewBox="0 0 80 80" fill="none" xmlns="http://www.w3.org/2000/svg">
<path fill-rule="evenodd" clip-rule="evenodd" d="M4.59488 2.39047C3.81383 1.60943 2.5475 1.60943 1.76645 2.39047C0.985402 3.17152 0.985402 4.43785 1.76645 5.2189L17.8806 21.333H6.66699C5.56242 21.333 4.66699 22.2284 4.66699 23.333V39.9997C4.66699 41.1042 5.56242 41.9997 6.66699 41.9997H11.333V73.3333C11.333 74.4379 12.2284 75.3333 13.333 75.3333H66.6663C67.7709 75.3333 68.6663 74.4379 68.6663 73.3333V72.1188L75.0998 78.5522C75.8808 79.3333 77.1472 79.3333 77.9282 78.5522C78.7093 77.7712 78.7093 76.5049 77.9282 75.7238L4.59488 2.39047ZM64.6663 68.1188L42 45.4525V71.3333H64.6663V68.1188ZM34.5472 37.9997L21.8806 25.333H8.66699V37.9997H34.5472ZM20.5216 10.522C21.7094 9.33425 23.3203 8.66699 25 8.66699C29.7211 8.66699 32.9479 12.0103 35.1225 15.9642C36.1865 17.8987 36.9211 19.8522 37.3901 21.333H33.5C32.7403 21.333 32.0796 21.7565 31.741 22.3803C31.7363 22.3891 31.7316 22.3979 31.727 22.4067C31.7236 22.4131 31.7203 22.4195 31.717 22.426C31.578 22.6984 31.4997 23.0069 31.4997 23.3337C31.4997 24.4382 32.3951 25.3337 33.4997 25.3337H40H55L55.055 25.3335L55.1159 25.333H71.6667V37.9997H50.5C49.3954 37.9997 48.5 38.8951 48.5 39.9997C48.5 41.1042 49.3954 41.9997 50.5 41.9997H64.9991L64.9997 56.5001C64.9997 57.6046 65.8952 58.5 66.9998 58.5C68.1043 58.5 68.9997 57.6045 68.9997 56.4999L68.9991 41.9997H73.6667C74.7712 41.9997 75.6667 41.1042 75.6667 39.9997V23.333C75.6667 22.2284 74.7712 21.333 73.6667 21.333H63.1655C64.5633 19.5308 65.3334 17.3053 65.3334 15.0003C65.3334 12.2598 64.2447 9.63143 62.3068 7.69355C60.3689 5.75568 57.7406 4.66699 55 4.66699C48.0545 4.66699 43.7813 9.65697 41.3726 14.0365C40.8432 14.999 40.3882 15.958 40 16.8694C39.6118 15.958 39.1568 14.999 38.6274 14.0365C36.2187 9.65697 31.9455 4.66699 25 4.66699C22.2594 4.66699 19.6311 5.75568 17.6932 7.69355C16.9122 8.4746 16.9122 9.74093 17.6932 10.522C18.4743 11.303 19.7406 11.303 20.5216 10.522ZM55.0907 21.333C56.7376 21.3095 58.312 20.645 59.4784 19.4787C60.6661 18.2909 61.3334 16.68 61.3334 15.0003C61.3334 13.3206 60.6661 11.7097 59.4784 10.522C58.2906 9.33425 56.6797 8.66699 55 8.66699C50.2789 8.66699 47.052 12.0103 44.8774 15.9642C43.8135 17.8987 43.0789 19.8522 42.6099 21.333H55.0907ZM15.333 41.9997H38V71.3333H15.333V41.9997Z" fill="#38433F" fill-opacity="0.2"/>
</svg>
