<svg width="32" height="32" viewBox="0 0 32 32" fill="none" xmlns="http://www.w3.org/2000/svg">
<path fill-rule="evenodd" clip-rule="evenodd" d="M21 5C21.5523 5 22 5.44772 22 6V9H26C26.2868 9 26.5599 9.12317 26.7497 9.3382C26.9395 9.55323 27.0279 9.83942 26.9923 10.124L24.9923 26.124C24.9297 26.6245 24.5043 27 24 27H22C21.4477 27 21 26.5523 21 26C21 25.4477 21.4477 25 22 25H23.1172L24.8672 11H16C15.4477 11 15 10.5523 15 10C15 9.44772 15.4477 9 16 9H20V6C20 5.44772 20.4477 5 21 5Z" fill="#38433F" fill-opacity="0.8"/>
<path fill-rule="evenodd" clip-rule="evenodd" d="M5 22C5 21.4477 5.44772 21 6 21H19C19.5523 21 20 21.4477 20 22C20 22.5523 19.5523 23 19 23H6C5.44772 23 5 22.5523 5 22Z" fill="#38433F" fill-opacity="0.8"/>
<path fill-rule="evenodd" clip-rule="evenodd" d="M5 26C5 25.4477 5.44772 25 6 25H19C19.5523 25 20 25.4477 20 26C20 26.5523 19.5523 27 19 27H6C5.44772 27 5 26.5523 5 26Z" fill="#38433F" fill-opacity="0.8"/>
<path fill-rule="evenodd" clip-rule="evenodd" d="M5 18C5 15.2386 7.23858 13 10 13H15C17.7614 13 20 15.2386 20 18C20 18.5523 19.5523 19 19 19H6C5.44772 19 5 18.5523 5 18ZM7.17071 17H17.8293C17.4175 15.8348 16.3062 15 15 15H10C8.69378 15 7.58254 15.8348 7.17071 17Z" fill="#38433F" fill-opacity="0.8"/>
</svg>
