<svg fill="currentColor" width="24" height="24" viewBox="0 0 24 24" xmlns="http://www.w3.org/2000/svg">
<path fill-rule="evenodd" clip-rule="evenodd" d="M17 1C17.5523 1 18 1.44772 18 2V5H22C22.2868 5 22.5599 5.12317 22.7497 5.3382C22.9395 5.55323 23.0279 5.83942 22.9923 6.12403L20.9923 22.124C20.9297 22.6245 20.5043 23 20 23H18C17.4477 23 17 22.5523 17 22C17 21.4477 17.4477 21 18 21H19.1172L20.8672 7H12C11.4477 7 11 6.55228 11 6C11 5.44772 11.4477 5 12 5H16V2C16 1.44772 16.4477 1 17 1Z"/>
<path fill-rule="evenodd" clip-rule="evenodd" d="M1 18C1 17.4477 1.44772 17 2 17H15C15.5523 17 16 17.4477 16 18C16 18.5523 15.5523 19 15 19H2C1.44772 19 1 18.5523 1 18Z"/>
<path fill-rule="evenodd" clip-rule="evenodd" d="M1 22C1 21.4477 1.44772 21 2 21H15C15.5523 21 16 21.4477 16 22C16 22.5523 15.5523 23 15 23H2C1.44772 23 1 22.5523 1 22Z"/>
<path fill-rule="evenodd" clip-rule="evenodd" d="M1 14C1 11.2386 3.23858 9 6 9H11C13.7614 9 16 11.2386 16 14C16 14.5523 15.5523 15 15 15H2C1.44772 15 1 14.5523 1 14ZM3.17071 13H13.8293C13.4175 11.8348 12.3062 11 11 11H6C4.69378 11 3.58254 11.8348 3.17071 13Z"/>
</svg>
