<svg width="24" height="24" viewBox="0 0 24 24" fill="none" xmlns="http://www.w3.org/2000/svg">
<path fill-rule="evenodd" clip-rule="evenodd" d="M5 5.5C4.44772 5.5 4 5.94772 4 6.5V8.12602C5.72523 8.57006 7 10.1362 7 12C7 13.8638 5.72523 15.4299 4 15.874V17.5C4 18.0523 4.44772 18.5 5 18.5H19C19.5523 18.5 20 18.0523 20 17.5V15.874C18.2748 15.4299 17 13.8638 17 12C17 10.1362 18.2748 8.57006 20 8.12602V6.5C20 5.94771 19.5523 5.5 19 5.5H5ZM2 6.5C2 4.84315 3.34315 3.5 5 3.5H19C20.6569 3.5 22 4.84315 22 6.5V9C22 9.55228 21.5523 10 21 10C19.8954 10 19 10.8954 19 12C19 13.1046 19.8954 14 21 14C21.5523 14 22 14.4477 22 15V17.5C22 19.1569 20.6569 20.5 19 20.5H5C3.34315 20.5 2 19.1569 2 17.5V15C2 14.4477 2.44772 14 3 14C4.10457 14 5 13.1046 5 12C5 10.8954 4.10457 10 3 10C2.44772 10 2 9.55228 2 9V6.5Z" fill="#38433F" fill-opacity="0.6"/>
<path d="M13 8C13 8.55228 12.5523 9 12 9C11.4477 9 11 8.55228 11 8C11 7.44772 11.4477 7 12 7C12.5523 7 13 7.44772 13 8Z" fill="#38433F" fill-opacity="0.6"/>
<path d="M13 12C13 12.5523 12.5523 13 12 13C11.4477 13 11 12.5523 11 12C11 11.4477 11.4477 11 12 11C12.5523 11 13 11.4477 13 12Z" fill="#38433F" fill-opacity="0.6"/>
<path d="M13 16C13 16.5523 12.5523 17 12 17C11.4477 17 11 16.5523 11 16C11 15.4477 11.4477 15 12 15C12.5523 15 13 15.4477 13 16Z" fill="#38433F" fill-opacity="0.6"/>
</svg>
