<svg viewBox="0 0 213 48" fill="currentColor" xmlns="http://www.w3.org/2000/svg">
<path fill-rule="evenodd" clip-rule="evenodd" d="M12.4718 29.4399C13.0399 29.9031 13.946 30.1344 15.19 30.1344C15.9362 30.1344 16.7532 30.081 17.6417 29.9742V36.0652C15.9714 36.2431 14.5856 36.3323 13.4844 36.3323C10.6415 36.3323 8.51865 35.6826 7.11531 34.3821C5.71144 33.0822 5.01003 30.7403 5.01003 27.3561V15.2809H0V9.3502H5.01003V2.77832L11.619 0.534258V9.3502H17.5351V15.2809H11.619V26.9286C11.619 28.1399 11.9031 28.9772 12.4718 29.4399Z"/>
<path fill-rule="evenodd" clip-rule="evenodd" d="M38.0412 29.5739C39.1781 28.9151 40.0842 28.0159 40.7595 26.8757C41.4342 25.736 41.7721 24.4895 41.7721 23.1356C41.7721 21.7822 41.4342 20.5357 40.7595 19.3955C40.0842 18.2558 39.1781 17.3475 38.0412 16.6706C36.9039 15.9942 35.6604 15.6554 34.3103 15.6554C32.9598 15.6554 31.7163 15.9942 30.5795 16.6706C29.4421 17.3475 28.5451 18.2558 27.8879 19.3955C27.2302 20.5357 26.9019 21.7822 26.9019 23.1356C26.9019 24.4895 27.2302 25.736 27.8879 26.8757C28.5451 28.0159 29.4421 28.9151 30.5795 29.5739C31.7163 30.2332 32.9598 30.5624 34.3103 30.5624C35.6604 30.5624 36.9039 30.2332 38.0412 29.5739ZM27.3549 35.2914C25.2049 34.0268 23.4993 32.317 22.2383 30.1616C20.9767 28.0068 20.3462 25.6655 20.3462 23.1356C20.3462 20.6068 20.9767 18.2649 22.2383 16.1096C23.4993 13.9547 25.2049 12.245 27.3549 10.9803C29.5044 9.71614 31.8405 9.08353 34.3636 9.08353C36.8863 9.08353 39.2223 9.71614 41.3724 10.9803C43.5219 12.245 45.228 13.9547 46.4895 16.1096C47.75 18.2649 48.3811 20.6068 48.3811 23.1356C48.3811 25.6655 47.75 28.0068 46.4895 30.1616C45.228 32.317 43.5219 34.0268 41.3724 35.2914C39.2223 36.5551 36.8863 37.1877 34.3636 37.1877C31.8405 37.1877 29.5044 36.5551 27.3549 35.2914Z"/>
<path fill-rule="evenodd" clip-rule="evenodd" d="M105.092 20.3572C104.807 18.6475 104.017 17.3037 102.72 16.3233C101.422 15.3439 99.7969 14.854 97.8431 14.854C96.4926 14.854 95.2587 15.1035 94.1388 15.602C93.0204 16.1015 92.122 16.7774 91.4473 17.6323C90.7726 18.4872 90.4166 19.3955 90.3814 20.3572H105.092ZM104.799 10.9803C106.842 12.245 108.432 13.9457 109.569 16.0828C110.706 18.22 111.275 20.5897 111.275 23.189C111.275 24.0439 111.203 24.8277 111.061 25.5399H90.4885C91.0215 27.4282 91.9624 28.8975 93.3128 29.9479C94.6633 30.9994 96.386 31.5241 98.4831 31.5241C99.7622 31.5241 100.996 31.2393 102.187 30.6697C103.377 30.0997 104.274 29.3693 104.879 28.4786L109.942 31.4712C108.698 33.3236 107.091 34.7395 105.119 35.7183C103.147 36.6977 100.882 37.1877 98.3235 37.1877C95.4798 37.1877 92.9574 36.5818 90.7552 35.3716C88.551 34.1609 86.8545 32.4858 85.6653 30.3486C84.4739 28.2114 83.879 25.8071 83.879 23.1356C83.879 20.5004 84.4739 18.1132 85.6653 15.976C86.8545 13.8388 88.5158 12.1557 90.6481 10.9269C92.7799 9.69797 95.1962 9.08353 97.8972 9.08353C100.455 9.08353 102.755 9.71614 104.799 10.9803Z"/>
<path fill-rule="evenodd" clip-rule="evenodd" d="M126.279 30.5093C126.847 30.9725 127.754 31.2039 128.998 31.2039C129.743 31.2039 130.561 31.1504 131.449 31.0436V37.1346C129.778 37.3125 128.393 37.4017 127.291 37.4017C124.448 37.4017 122.326 36.752 120.922 35.4515C119.518 34.1516 118.817 31.8098 118.817 28.4255V16.3503H113.808V10.4196H118.817V3.84772L125.426 1.60367V10.4196H131.342V16.3503H125.426V27.9981C125.426 29.2093 125.71 30.0466 126.279 30.5093Z"/>
<path fill-rule="evenodd" clip-rule="evenodd" d="M158.795 37.401H152.238V21.5857C152.238 19.5912 151.679 18.1576 150.56 17.2846C149.44 16.4121 148.116 15.9756 146.589 15.9756C145.38 15.9756 144.288 16.3496 143.311 17.0976C142.333 17.8456 141.703 19.0392 141.419 20.6774V37.401H134.81V0H141.419V12.93C142.307 12.0752 143.328 11.3987 144.484 10.8997C145.638 10.4012 146.873 10.1517 148.188 10.1517C149.751 10.1517 151.333 10.4813 152.932 11.1401C154.531 11.7995 155.907 12.9658 157.063 14.6398C158.216 16.3143 158.795 18.576 158.795 21.4254V37.401Z"/>
<path fill-rule="evenodd" clip-rule="evenodd" d="M183.327 20.3572C183.042 18.6475 182.251 17.3037 180.955 16.3233C179.657 15.3439 178.031 14.854 176.078 14.854C174.727 14.854 173.493 15.1035 172.373 15.602C171.255 16.1015 170.357 16.7774 169.682 17.6323C169.007 18.4872 168.651 19.3955 168.616 20.3572H183.327ZM183.033 10.9803C185.076 12.245 186.667 13.9457 187.803 16.0828C188.94 18.22 189.509 20.5897 189.509 23.189C189.509 24.0439 189.437 24.8277 189.296 25.5399H168.723C169.256 27.4282 170.197 28.8975 171.547 29.9479C172.898 30.9994 174.621 31.5241 176.718 31.5241C177.997 31.5241 179.231 31.2393 180.422 30.6697C181.612 30.0997 182.509 29.3693 183.114 28.4786L188.177 31.4712C186.933 33.3236 185.326 34.7395 183.354 35.7183C181.381 36.6977 179.116 37.1877 176.558 37.1877C173.714 37.1877 171.192 36.5818 168.99 35.3716C166.786 34.1609 165.089 32.4858 163.9 30.3486C162.709 28.2114 162.114 25.8071 162.114 23.1356C162.114 20.5004 162.709 18.1132 163.9 15.976C165.089 13.8388 166.75 12.1557 168.882 10.9269C171.015 9.69797 173.431 9.08353 176.132 9.08353C178.69 9.08353 180.99 9.71614 183.033 10.9803Z"/>
<path fill-rule="evenodd" clip-rule="evenodd" d="M208.396 9.08353L207.917 15.3348C207.703 15.2638 207.331 15.228 206.798 15.228C204.594 15.228 202.774 15.8691 201.334 17.1515C199.896 18.4338 199.176 20.1793 199.176 22.3876V36.3328H192.567V9.61783H199.176V14.1059C199.78 12.6815 200.81 11.4879 202.267 10.5261C203.724 9.5644 205.482 9.08353 207.544 9.08353H208.396Z"/>
<path fill-rule="evenodd" clip-rule="evenodd" d="M72.6978 48H51.325V46.6301C51.325 43.3837 53.95 40.7528 57.1879 40.7528H78.5606V42.1227C78.5606 45.3686 75.9353 48 72.6978 48Z"/>
<path fill-rule="evenodd" clip-rule="evenodd" d="M76.7177 14.922C78.9436 13.9203 80.4935 11.6829 80.4935 9.08351H64.9421V9.08915C57.386 9.3019 51.3255 15.5093 51.3255 23.1356C51.3255 30.8963 57.6015 37.1882 65.343 37.1882C73.0846 37.1882 79.3602 30.8963 79.3602 23.1356C79.3602 20.0692 78.3804 17.2322 76.7177 14.922ZM72.9644 23.1356C72.9644 18.9226 69.5457 15.4951 65.343 15.4951C61.1404 15.4951 57.7212 18.9226 57.7212 23.1356C57.7212 27.3491 61.1404 30.7766 65.343 30.7766C69.5457 30.7766 72.9644 27.3491 72.9644 23.1356Z"/>
<path fill-rule="evenodd" clip-rule="evenodd" d="M212.651 32.56C212.651 30.3464 210.888 28.5527 208.713 28.5527C206.539 28.5527 204.775 30.3464 204.775 32.56C204.775 34.7736 206.539 36.5672 208.713 36.5672C210.888 36.5672 212.651 34.7736 212.651 32.56Z" fill="#FF7664"/>
</svg>
